# xmcd CD database file
#
# Track frame offsets:
#	150
#	20830
#	36310
#	67967
#
# Disc length: 1037 seconds
#
# Revision: 0
# Processed by: cddbd v1.5PL3 Copyright (c) Steve Scherf et al.
# Submitted via: CDex 1.51
#
DISCID=31040b04
DTITLE=Natural Punch Drunker - ポエム
DYEAR=2000
DGENRE=J-Pop
TTITLE0=ポエム
TTITLE1=これから
TTITLE2=しあわせの歌
TTITLE3=SWINE
EXTD=YEAR: 2000
EXTT0=
EXTT1=
EXTT2=
EXTT3=
PLAYORDER=
